{"glyphs":{":":{"x_min":0,"x_max":295,"ha":295,"o":"m 150 111 q 175 111 190 95 q 205 80 205 53 q 205 22 189 5 q 173 -12 145 -12 q 121 -12 106 4 q 91 21 91 48 q 91 74 108 93 q 126 111 150 111 z m 150 445 q 175 445 190 429 q 205 414 205 387 q 205 356 189 339 q 173 321 145 321 q 121 321 106 338 q 91 355 91 382 q 91 408 108 427 q 126 445 150 445 z"},"$":{"x_min":0,"x_max":554,"ha":554,"o":"m 288 304 l 288 23 q 352 24 390 56 q 428 88 428 140 q 428 184 394 224 q 360 264 288 304 z m 257 674 q 205 672 172 643 q 139 615 139 572 q 139 537 167 504 q 195 472 257 436 z m 257 769 l 288 769 l 288 699 q 309 696 350 685 q 392 675 411 675 q 420 675 431 677 q 441 680 452 684 l 452 515 l 431 515 q 417 583 381 623 q 344 663 288 670 l 288 413 q 402 346 447 294 q 491 241 491 178 q 491 98 436 46 q 380 -5 288 -11 l 288 -155 l 257 -155 l 257 -12 q 219 -9 164 7 q 108 24 86 24 q 82 24 74 23 q 67 21 63 21 l 63 229 l 81 229 q 92 141 138 88 q 183 36 257 26 l 257 327 q 159 386 116 436 q 74 486 74 542 q 74 611 125 656 q 175 700 257 701 z"},"?":{"x_min":0,"x_max":554,"ha":554,"o":"m 243 111 q 269 111 282 96 q 296 81 296 53 q 296 23 280 5 q 265 -13 239 -13 q 215 -13 200 4 q 184 21 184 48 q 184 74 201 93 q 219 111 243 111 z m 248 192 l 229 192 q 229 197 228 202 q 228 207 228 217 q 228 250 236 281 q 245 312 263 349 q 272 367 296 403 q 320 440 331 457 q 345 480 352 505 q 359 531 359 559 q 359 617 322 659 q 286 701 235 701 q 197 701 181 679 q 164 658 164 607 l 164 583 q 164 560 154 550 q 144 540 121 540 q 91 540 79 551 q 66 562 66 587 q 66 653 117 691 q 168 729 258 729 q 350 729 403 684 q 456 640 456 563 q 456 531 444 499 q 433 467 411 438 q 391 412 349 370 q 308 329 292 310 q 270 283 259 254 q 248 226 248 192 z"},"<":{"x_min":0,"x_max":833,"ha":833,"o":"m 704 566 l 704 491 l 231 298 l 704 106 l 704 31 l 129 267 l 129 330 z"},"'":{"x_min":0,"x_max":172,"ha":172,"o":"m 95 420 l 78 420 l 44 644 q 44 645 43 648 q 42 658 42 662 q 42 687 53 700 q 65 714 86 714 q 106 714 118 701 q 130 688 130 664 q 130 661 130 657 q 129 653 128 644 z"},"=":{"x_min":0,"x_max":833,"ha":833,"o":"m 124 235 l 709 235 l 709 167 l 124 167 z m 124 429 l 709 429 l 709 361 l 124 361 z"},"a":{"x_min":0,"x_max":477,"ha":477,"o":"m 311 266 q 215 241 168 207 q 122 173 122 127 q 122 91 143 72 q 163 53 201 53 q 226 53 253 64 q 280 75 311 97 z m 395 320 l 395 68 q 395 55 399 49 q 402 42 409 42 q 419 42 429 47 q 439 52 449 62 l 459 43 q 436 16 413 2 q 390 -12 368 -12 q 339 -12 325 8 q 311 27 311 68 l 311 72 q 264 30 223 8 q 182 -13 148 -13 q 93 -13 61 18 q 28 49 28 101 q 28 173 99 221 q 170 269 311 291 l 311 379 q 311 411 291 431 q 271 450 237 450 q 191 450 167 431 q 144 413 144 376 q 144 375 144 372 q 145 357 145 345 q 145 329 134 323 q 124 316 95 316 q 76 316 68 326 q 60 335 60 358 q 60 412 107 446 q 153 480 229 480 q 319 480 357 444 q 395 408 395 320 z"},"L":{"x_min":0,"x_max":624,"ha":624,"o":"m 49 717 q 75 714 107 713 q 139 712 183 712 q 227 712 258 713 q 290 714 317 717 l 317 696 q 265 694 250 684 q 236 674 236 625 l 236 612 l 236 83 q 236 55 249 47 q 262 39 320 39 l 349 39 q 478 39 523 71 q 568 103 587 190 l 608 190 l 569 -3 q 532 0 472 1 q 412 2 334 2 q 188 2 135 1 q 82 0 49 -3 l 49 19 q 103 21 117 32 q 131 43 131 103 l 131 612 q 131 672 116 684 q 102 695 49 696 z"},"3":{"x_min":0,"x_max":554,"ha":554,"o":"m 110 687 q 138 687 194 687 q 250 686 279 686 l 454 686 l 454 675 l 259 422 l 268 422 q 354 422 407 370 q 459 319 459 234 q 459 133 391 60 q 323 -13 228 -13 q 178 -13 129 9 q 81 31 38 74 l 54 92 q 86 62 123 46 q 161 31 200 31 q 267 31 313 82 q 360 133 360 207 q 360 279 318 323 q 275 367 206 367 q 197 367 193 367 q 188 367 184 366 l 184 373 l 356 603 l 150 603 q 125 603 108 600 q 90 597 78 590 q 85 609 93 633 q 101 656 110 687 z"},";":{"x_min":0,"x_max":295,"ha":295,"o":"m 64 -151 l 64 -131 q 117 -111 143 -78 q 169 -45 169 0 l 169 8 q 157 0 148 -4 q 139 -8 131 -8 q 112 -8 101 5 q 89 18 89 39 q 89 68 106 85 q 123 103 150 103 q 180 103 197 80 q 214 57 214 16 q 214 -47 175 -91 q 135 -135 64 -151 z m 150 445 q 175 445 190 429 q 205 414 205 387 q 205 356 189 339 q 173 321 145 321 q 121 321 106 338 q 91 355 91 382 q 91 408 108 427 q 126 445 150 445 z"},"J":{"x_min":0,"x_max":359,"ha":359,"o":"m 48 717 q 75 714 107 713 q 139 712 183 712 q 227 712 259 713 q 291 714 317 717 l 317 696 q 264 695 250 684 q 235 672 235 612 l 235 201 q 235 96 228 45 q 221 -5 205 -41 q 188 -81 149 -118 q 109 -155 56 -182 l 37 -169 q 89 -144 109 -101 q 130 -59 130 36 l 130 612 q 130 672 115 684 q 101 695 48 696 z"},"V":{"x_min":0,"x_max":683,"ha":683,"o":"m -13 717 q 12 714 43 713 q 75 712 117 712 q 160 712 191 713 q 222 714 247 717 l 247 696 q 208 696 192 687 q 176 677 176 655 q 176 648 179 637 q 182 626 190 606 l 372 147 l 563 631 q 567 642 570 651 q 572 661 572 666 q 572 681 555 688 q 539 695 502 696 l 502 717 q 532 714 555 713 q 578 712 598 712 q 628 712 652 713 q 675 714 696 717 l 696 696 q 666 696 647 681 q 628 666 612 625 l 344 -22 l 335 -22 l 74 617 q 54 666 36 681 q 18 695 -13 696 z"},"\"":{"x_min":0,"x_max":335,"ha":335,"o":"m 257 420 l 240 420 l 206 644 q 206 647 205 651 q 205 655 205 662 q 205 687 216 700 q 227 714 248 714 q 269 714 280 701 q 292 688 292 664 q 292 656 292 652 q 292 648 291 644 z m 95 420 l 78 420 l 44 644 q 43 652 42 657 q 42 661 42 664 q 42 688 54 701 q 65 714 86 714 q 107 714 119 700 q 130 687 130 662 q 130 654 130 651 q 129 647 129 644 z"},"7":{"x_min":0,"x_max":554,"ha":554,"o":"m 122 689 q 139 688 159 687 q 178 686 217 686 l 262 686 q 392 686 436 687 q 479 688 502 689 l 502 680 q 454 564 394 393 q 333 221 264 0 l 185 0 q 248 186 304 334 q 361 482 412 598 l 235 598 q 169 598 137 593 q 105 587 83 575 q 90 594 100 622 q 109 651 122 689 z"},"S":{"x_min":0,"x_max":626,"ha":626,"o":"m 494 715 l 494 540 l 476 540 q 455 613 406 651 q 358 690 290 690 q 237 690 203 661 q 169 631 169 586 q 169 515 329 432 q 357 417 373 409 q 472 355 505 311 q 538 267 538 200 q 538 108 474 47 q 409 -14 310 -14 q 265 -14 208 2 q 150 19 138 19 q 124 19 111 12 q 98 5 82 -11 l 82 237 l 102 237 q 124 140 178 89 q 233 37 314 37 q 375 37 415 73 q 455 110 455 165 q 455 209 430 240 q 406 270 321 314 l 284 333 q 178 390 161 403 q 121 435 102 470 q 83 505 83 549 q 83 628 142 678 q 201 728 296 728 q 335 728 384 715 q 433 702 444 702 q 453 702 464 705 q 475 708 494 715 z"},"}":{"x_min":0,"x_max":500,"ha":500,"o":"m 86 740 l 91 740 q 198 740 239 704 q 279 668 279 571 l 279 470 q 279 392 307 362 q 335 333 414 326 l 414 295 q 335 289 307 259 q 279 229 279 151 l 279 50 q 279 -47 239 -83 q 198 -119 91 -119 l 86 -119 l 86 -93 q 153 -92 177 -67 q 201 -41 201 35 l 201 104 q 201 215 230 255 q 258 294 336 310 q 259 326 230 365 q 201 405 201 516 l 201 585 q 201 662 177 688 q 152 713 86 714 z"},"Z":{"x_min":0,"x_max":668,"ha":668,"o":"m 78 718 q 121 715 177 713 q 232 712 317 712 q 444 712 519 713 q 594 715 646 718 l 156 46 l 396 46 q 479 46 513 53 q 547 61 566 78 q 584 95 594 122 q 605 149 611 192 l 633 192 q 630 159 629 129 q 628 100 628 72 q 628 49 630 0 l 630 -3 q 587 -1 535 0 q 483 1 416 1 q 268 1 167 0 q 66 -1 -3 -3 l 488 672 l 244 672 q 169 672 137 645 q 106 617 90 542 l 68 542 q 71 585 74 628 q 76 672 78 718 z"},"x":{"x_min":0,"x_max":480,"ha":480,"o":"m 8 469 q 18 469 37 468 q 94 465 114 465 q 135 465 193 468 q 211 469 220 469 l 220 451 q 195 448 184 441 q 172 435 172 424 q 172 418 175 411 q 178 404 184 395 l 247 309 l 302 386 q 311 398 316 409 q 321 421 321 427 q 321 437 308 443 q 295 449 271 451 l 271 469 q 279 469 294 468 q 342 465 359 465 q 377 465 428 468 q 441 469 447 469 l 447 451 l 442 451 q 415 451 390 434 q 365 417 341 382 l 266 275 l 396 87 q 398 83 403 77 q 442 19 480 16 l 480 -2 q 449 0 422 1 q 395 2 373 2 q 352 2 325 1 q 298 0 267 -2 l 267 16 q 302 19 311 24 q 321 30 321 43 q 321 46 316 56 q 311 66 302 80 l 220 210 l 126 73 q 119 63 115 54 q 111 45 111 39 q 111 30 122 24 q 133 18 152 16 l 152 -2 q 130 0 110 1 q 91 2 76 2 q 62 2 42 1 q 22 0 1 -2 l 1 16 q 27 20 47 34 q 66 48 96 93 l 198 241 l 84 398 q 83 399 80 403 q 47 449 8 451 z"},")":{"x_min":0,"x_max":405,"ha":405,"o":"m 44 728 q 164 639 220 535 q 277 430 277 297 q 277 161 222 46 q 168 -70 58 -166 l 47 -151 q 120 -69 154 31 q 189 130 189 259 q 189 409 151 516 q 114 624 32 710 z"},"&":{"x_min":0,"x_max":823,"ha":823,"o":"m 264 372 q 202 337 170 293 q 138 250 138 201 q 138 135 181 92 q 224 49 290 49 q 328 49 362 63 q 396 78 427 107 q 382 160 342 224 q 303 288 264 372 z m 347 412 q 379 339 414 279 q 449 219 487 172 q 534 228 563 281 q 593 335 593 358 q 593 374 583 382 q 572 390 544 395 l 544 416 q 564 414 590 412 q 615 411 650 411 q 685 411 710 412 q 735 414 756 416 l 756 395 q 723 393 694 376 q 666 360 647 333 q 645 330 637 318 q 577 229 509 144 q 551 91 594 66 q 636 42 686 42 q 711 42 734 49 q 756 56 776 70 l 786 54 q 743 19 702 2 q 662 -15 622 -15 q 575 -15 531 9 q 488 33 449 80 q 402 34 346 10 q 290 -14 228 -14 q 144 -14 94 31 q 43 77 43 152 q 43 228 92 287 q 141 346 251 401 q 234 441 226 477 q 218 512 218 545 q 218 627 264 678 q 310 728 385 728 q 447 728 484 694 q 521 660 521 604 q 521 546 481 502 q 441 458 347 412 z m 333 437 q 400 479 432 520 q 464 560 464 603 q 464 645 441 671 q 418 697 383 697 q 342 697 316 668 q 291 639 291 592 q 291 564 302 524 q 313 483 333 437 z"},"_":{"x_min":0,"x_max":500,"ha":500,"o":"m 0 -166 l 500 -166 l 500 -236 l 0 -236 z"},"v":{"x_min":0,"x_max":451,"ha":451,"o":"m -15 469 q 12 467 38 466 q 65 465 91 465 q 117 465 143 466 q 169 467 196 469 l 196 451 q 172 450 158 441 q 144 432 144 418 q 144 411 146 402 q 147 394 153 379 l 250 127 l 356 397 q 359 405 361 412 q 363 419 363 424 q 363 434 354 441 q 345 447 325 451 l 325 469 q 343 467 361 466 q 378 465 395 465 q 413 465 459 469 q 463 469 465 469 l 465 451 q 439 445 421 425 q 403 405 384 358 l 227 -13 l 220 -13 l 72 358 q 69 365 65 376 q 39 447 -15 451 z"},"O":{"x_min":0,"x_max":812,"ha":812,"o":"m 405 693 q 297 693 228 611 q 159 529 159 398 q 159 317 186 245 q 212 174 262 120 q 298 82 344 61 q 390 40 438 40 q 537 40 596 121 q 656 201 656 337 q 656 497 586 595 q 517 693 405 693 z m 418 728 q 494 728 558 699 q 622 671 672 615 q 713 569 736 502 q 759 436 759 360 q 759 193 659 90 q 559 -13 397 -13 q 242 -13 148 88 q 53 189 53 355 q 53 437 78 503 q 102 569 152 621 q 202 674 270 701 q 337 728 418 728 z"},"(":{"x_min":0,"x_max":405,"ha":405,"o":"m 344 728 l 355 714 q 282 632 248 532 q 214 433 214 304 q 214 153 251 46 q 289 -62 371 -147 l 358 -166 q 238 -77 182 27 q 126 131 126 265 q 126 401 180 517 q 235 632 344 728 z"},"C":{"x_min":0,"x_max":709,"ha":709,"o":"m 623 697 l 630 472 l 608 472 q 590 581 540 635 q 489 689 406 689 q 297 689 229 607 q 162 525 162 392 q 162 343 171 299 q 180 254 197 217 q 234 135 294 91 q 354 47 428 47 q 484 47 539 78 q 593 109 641 169 l 662 156 q 612 72 541 30 q 470 -13 381 -13 q 316 -13 260 9 q 203 32 159 75 q 107 125 80 195 q 53 264 53 347 q 53 437 84 512 q 115 587 174 642 q 219 684 274 705 q 329 727 390 727 q 435 727 498 709 q 561 692 581 692 q 588 692 598 693 q 608 694 623 697 z"},"W":{"x_min":0,"x_max":965,"ha":965,"o":"m -13 717 q 12 714 43 713 q 75 712 117 712 q 160 712 191 713 q 222 714 247 717 l 247 696 l 239 696 q 209 696 194 686 q 178 675 178 655 q 178 648 180 639 q 183 629 190 606 l 337 170 l 466 508 l 417 635 q 405 667 387 679 q 370 692 335 696 l 335 717 q 360 714 391 713 q 422 712 465 712 q 507 712 539 713 q 570 714 595 717 l 595 696 q 556 693 538 683 q 519 673 519 655 q 519 648 523 634 q 527 619 534 598 l 682 154 l 847 631 q 852 644 853 651 q 855 659 855 665 q 855 681 840 688 q 824 695 786 696 l 786 717 q 816 714 839 713 q 862 712 882 712 q 912 712 935 713 q 958 714 979 717 l 979 696 q 948 696 929 679 q 910 663 896 625 l 658 -22 l 647 -22 l 486 450 l 311 -22 l 302 -22 l 74 617 q 58 661 39 678 q 19 696 -13 696 z"},"A":{"x_min":0,"x_max":635,"ha":635,"o":"m 287 564 l 170 274 l 395 274 z m 308 728 l 320 728 l 583 72 q 596 40 611 29 q 626 19 658 19 l 658 -3 q 625 0 597 1 q 568 3 540 3 q 511 3 483 1 q 455 0 423 -3 l 423 19 l 430 19 q 454 19 464 26 q 474 32 474 48 q 474 55 471 67 q 467 80 461 97 l 411 234 l 152 234 l 92 85 q 88 76 87 69 q 85 61 85 54 q 85 37 98 29 q 110 21 143 19 l 143 -3 q 119 0 97 1 q 76 3 55 3 q 33 3 11 1 q -11 0 -35 -3 l -35 19 l -28 19 q -3 19 12 34 q 28 50 51 105 z"},"f":{"x_min":0,"x_max":319,"ha":319,"o":"m 184 585 l 184 467 l 278 467 l 278 434 l 184 434 l 184 88 q 184 40 199 28 q 214 17 268 16 l 268 -2 q 235 0 205 1 q 175 2 149 2 q 124 2 93 1 q 63 0 30 -2 l 30 16 q 74 16 87 28 q 100 40 100 88 l 100 434 l 29 434 l 29 467 l 100 467 l 100 493 q 100 627 145 690 q 189 754 284 754 q 327 754 348 735 q 370 717 370 680 q 370 662 361 652 q 351 643 332 643 q 311 643 301 651 q 292 658 289 678 q 289 682 288 690 q 284 724 253 724 q 218 724 201 689 q 184 655 184 585 z"},"Q":{"x_min":0,"x_max":812,"ha":812,"o":"m 603 50 q 641 14 689 -10 q 738 -35 794 -45 l 794 -69 q 709 -65 639 -46 q 568 -27 515 6 q 481 -4 451 -9 q 420 -14 393 -14 q 242 -14 147 88 q 53 190 53 355 q 53 437 78 503 q 102 569 152 621 q 202 674 270 701 q 337 728 418 728 q 573 728 667 623 q 761 517 761 341 q 761 240 721 167 q 682 93 603 50 z m 405 693 q 297 693 228 611 q 159 529 159 398 q 159 317 186 245 q 212 174 262 120 q 298 82 344 61 q 390 40 438 40 q 537 40 596 121 q 656 201 656 337 q 656 497 586 595 q 517 693 405 693 z"},"w":{"x_min":0,"x_max":720,"ha":720,"o":"m -13 468 q 13 466 38 466 q 62 465 87 465 q 111 465 136 466 q 161 466 187 468 l 187 450 q 162 449 147 441 q 133 433 133 420 q 133 415 136 404 q 139 393 144 379 l 254 112 l 344 327 l 315 400 q 305 425 291 436 q 278 447 255 450 l 255 468 q 281 466 306 466 q 332 465 356 465 q 380 465 405 466 q 430 466 456 468 l 456 450 q 425 445 413 438 q 401 430 401 417 q 401 411 403 403 q 405 395 410 380 l 509 116 l 616 376 l 617 378 q 629 406 629 417 q 629 432 617 440 q 604 449 582 450 l 582 468 q 593 466 608 466 q 623 465 657 465 q 688 465 703 466 q 717 466 730 468 l 730 450 q 709 445 696 433 q 682 420 666 383 l 492 -13 l 481 -13 l 365 272 l 237 -13 l 227 -13 l 69 360 q 67 364 64 371 q 33 446 -13 450 z"},"-":{"x_min":0,"x_max":397,"ha":397,"o":"m 92 277 l 305 277 l 305 203 l 92 203 z"},"E":{"x_min":0,"x_max":646,"ha":646,"o":"m 49 717 q 83 714 129 713 q 175 712 285 712 q 388 712 450 713 q 513 714 553 717 l 561 559 l 541 559 q 531 621 491 647 q 452 674 369 674 l 268 674 q 246 674 241 669 q 236 665 236 650 l 236 391 l 366 391 q 417 391 438 412 q 458 432 464 488 l 485 488 q 485 449 485 372 q 486 295 486 257 l 465 257 q 459 312 438 333 q 418 354 367 354 l 236 354 l 236 83 q 236 55 250 47 q 263 39 318 39 l 375 39 q 476 39 521 69 q 566 99 587 174 l 608 174 l 569 -3 q 532 0 472 1 q 412 2 334 2 q 188 2 135 1 q 82 0 49 -3 l 49 19 q 103 21 117 32 q 131 43 131 103 l 131 612 q 131 672 116 684 q 102 695 49 696 z"},"s":{"x_min":0,"x_max":409,"ha":409,"o":"m 324 467 q 324 456 325 413 q 327 370 328 345 l 307 345 q 299 396 268 424 q 237 453 190 453 q 157 453 136 435 q 115 417 115 390 q 115 365 133 344 q 151 324 188 305 q 202 298 225 287 q 282 257 296 246 q 329 220 342 194 q 354 168 354 131 q 354 71 313 31 q 272 -10 212 -10 q 185 -10 135 4 q 84 17 60 17 l 50 17 q 50 58 51 97 q 52 137 53 176 l 75 176 q 82 103 117 65 q 151 28 211 28 q 250 28 272 48 q 294 68 294 103 q 294 129 282 148 q 271 167 248 178 q 121 236 87 271 q 54 305 54 355 q 54 412 91 445 q 129 479 192 479 q 209 479 246 472 q 283 466 304 466 q 308 466 313 466 q 318 466 324 467 z"},">":{"x_min":0,"x_max":833,"ha":833,"o":"m 129 566 l 704 330 l 704 267 l 129 31 l 129 106 l 603 298 l 129 491 z"},"l":{"x_min":0,"x_max":248,"ha":248,"o":"m 145 754 l 163 754 l 163 88 q 163 38 174 28 q 186 18 229 16 l 229 -2 q 199 0 172 1 q 145 2 121 2 q 97 2 70 1 q 43 0 13 -2 l 13 16 q 53 17 66 29 q 79 41 79 88 l 79 634 q 79 662 68 671 q 56 679 12 680 l 12 700 q 44 709 78 722 q 111 736 145 754 z"},"8":{"x_min":0,"x_max":554,"ha":554,"o":"m 250 341 q 201 310 177 272 q 153 234 153 187 q 153 118 195 76 q 236 34 304 34 q 360 34 396 65 q 433 97 433 144 q 433 187 400 226 q 367 264 250 341 z m 331 389 q 423 341 461 295 q 499 250 499 191 q 499 103 433 44 q 367 -14 266 -14 q 169 -14 112 35 q 54 84 54 166 q 54 232 96 279 q 138 326 226 357 q 155 395 122 438 q 89 481 89 536 q 89 609 146 655 q 203 701 295 701 q 377 701 426 660 q 475 619 475 551 q 475 495 439 455 q 403 415 331 389 z m 309 405 q 356 434 377 467 q 398 500 398 544 q 398 602 365 637 q 332 672 277 672 q 231 672 200 642 q 170 612 170 568 q 170 524 205 483 q 240 442 309 405 z"},"\\":{"x_min":0,"x_max":444,"ha":444,"o":"m 54 728 l 97 728 l 413 -106 l 370 -106 z"},"e":{"x_min":0,"x_max":461,"ha":461,"o":"m 422 288 l 105 288 l 105 275 q 105 180 151 121 q 196 62 268 62 q 314 62 351 87 q 388 112 415 162 l 435 155 q 401 72 349 30 q 296 -13 228 -13 q 142 -13 89 51 q 36 116 36 222 q 36 338 94 409 q 152 480 246 480 q 325 480 374 431 q 423 383 423 305 q 423 302 422 296 q 422 291 422 288 z m 335 317 q 335 375 304 412 q 273 448 226 448 q 180 448 148 413 q 117 378 109 317 z"},"b":{"x_min":0,"x_max":519,"ha":519,"o":"m 149 96 q 176 64 205 48 q 234 32 266 32 q 329 32 366 84 q 404 136 404 224 q 404 310 364 363 q 324 416 259 416 q 228 416 199 399 q 170 381 149 350 z m 132 754 l 149 754 l 149 390 q 187 436 224 458 q 261 479 304 479 q 385 479 434 417 q 483 356 483 253 q 483 200 469 155 q 456 110 428 74 q 397 33 355 9 q 312 -14 269 -14 q 239 -14 206 -2 q 173 10 137 34 l 81 -13 l 66 -13 l 66 634 q 66 662 54 670 q 42 679 -2 680 l -2 700 q 28 708 61 721 q 94 735 132 754 z"},"%":{"x_min":0,"x_max":809,"ha":809,"o":"m 713 253 q 713 300 692 327 q 671 353 634 353 q 578 353 533 285 q 488 218 488 128 q 488 79 507 53 q 527 27 564 27 q 596 27 624 49 q 652 71 676 114 q 693 146 703 183 q 713 219 713 253 z m 633 385 q 691 385 725 347 q 759 309 759 243 q 759 203 746 163 q 732 123 707 87 q 672 37 630 12 q 588 -13 539 -13 q 481 -13 447 25 q 412 63 412 128 q 412 168 425 208 q 438 247 464 282 q 500 331 544 358 q 589 385 633 385 z m 353 567 q 353 614 332 641 q 312 667 274 667 q 218 667 173 599 q 128 532 128 442 q 128 393 148 367 q 168 341 205 341 q 237 341 265 363 q 293 385 317 428 q 334 460 344 497 q 353 533 353 567 z m 274 699 q 332 699 365 661 q 399 623 399 557 q 399 517 386 477 q 373 436 348 401 q 313 352 270 326 q 227 301 179 301 q 121 301 86 339 q 52 376 52 441 q 52 481 65 521 q 79 561 104 596 q 139 644 184 672 q 229 699 274 699 z m 620 710 l 652 689 l 193 -25 l 159 -6 z"},"m":{"x_min":0,"x_max":828,"ha":828,"o":"m 147 480 l 167 480 l 167 381 q 229 439 264 458 q 299 478 333 478 q 374 478 404 454 q 435 430 452 384 q 499 434 539 457 q 579 480 616 480 q 681 480 713 439 q 744 398 744 313 l 744 88 q 744 39 756 28 q 767 18 810 16 l 810 -2 q 780 0 752 1 q 725 2 702 2 q 679 2 652 1 q 625 0 594 -2 l 594 16 q 634 17 647 29 q 660 41 660 88 l 660 321 q 660 373 641 396 q 622 420 580 420 q 553 420 524 407 q 495 394 456 362 l 456 88 q 456 39 468 28 q 479 18 522 16 l 522 -2 q 492 0 464 1 q 437 2 414 2 q 391 2 364 1 q 336 0 306 -2 l 306 16 q 346 17 359 29 q 372 41 372 88 l 372 321 q 372 373 353 396 q 334 420 294 420 q 271 420 244 407 q 217 395 177 364 l 177 88 q 177 38 188 28 q 200 18 243 16 l 243 -2 q 213 0 186 1 q 158 2 134 2 q 110 2 83 1 q 56 0 26 -2 l 26 16 q 67 17 79 29 q 92 41 92 88 l 92 353 q 92 387 82 397 q 72 408 43 408 q 40 408 34 408 q 28 407 24 407 l 24 428 q 47 435 73 446 q 100 457 147 480 z"},"#":{"x_min":0,"x_max":769,"ha":769,"o":"m 343 422 l 295 287 l 433 287 l 480 422 z m 371 712 l 447 712 l 368 490 l 503 490 l 582 712 l 658 712 l 579 490 l 726 490 l 702 422 l 555 422 l 508 287 l 664 287 l 640 219 l 484 219 l 405 -2 l 329 -2 l 408 219 l 272 219 l 193 -2 l 118 -2 l 196 219 l 43 219 l 68 287 l 220 287 l 268 422 l 104 422 l 129 490 l 292 490 z"},",":{"x_min":0,"x_max":277,"ha":277,"o":"m 41 -151 l 41 -131 q 94 -111 120 -78 q 146 -45 146 0 l 146 8 q 134 0 125 -4 q 116 -8 108 -8 q 89 -8 78 5 q 66 18 66 39 q 66 68 82 85 q 99 103 126 103 q 156 103 173 80 q 191 56 191 16 q 191 -47 152 -91 q 112 -135 41 -151 z"},"n":{"x_min":0,"x_max":554,"ha":554,"o":"m 147 480 l 167 480 l 167 385 q 217 436 258 458 q 299 480 341 480 q 407 480 438 439 q 469 398 469 313 l 469 88 q 469 39 481 28 q 492 18 535 16 l 535 -2 q 505 0 478 1 q 451 2 427 2 q 404 2 377 1 q 349 0 319 -2 l 319 16 q 359 17 372 29 q 384 41 384 88 l 384 321 q 384 374 365 397 q 347 420 305 420 q 274 420 242 405 q 210 390 177 361 l 177 88 q 177 38 188 28 q 200 18 243 16 l 243 -2 q 213 0 186 1 q 158 2 134 2 q 110 2 83 1 q 56 0 26 -2 l 26 16 q 67 17 79 29 q 92 41 92 88 l 92 353 q 92 387 82 397 q 72 408 43 408 q 40 408 34 408 q 28 407 24 407 l 24 428 q 47 435 73 446 q 100 457 147 480 z"},"h":{"x_min":0,"x_max":542,"ha":542,"o":"m 147 754 l 166 754 l 166 394 q 211 439 250 460 q 289 480 330 480 q 395 480 427 439 q 458 398 458 313 l 458 88 q 458 39 470 28 q 481 18 524 16 l 524 -2 q 494 0 467 1 q 439 2 416 2 q 393 2 365 1 q 337 0 307 -2 l 307 16 q 347 17 360 29 q 373 41 373 88 l 373 321 q 373 373 354 396 q 335 420 294 420 q 263 420 231 405 q 199 390 166 361 l 166 88 q 166 38 177 28 q 188 18 231 16 l 231 -2 q 201 0 174 1 q 146 2 123 2 q 99 2 72 1 q 45 0 15 -2 l 15 16 q 56 17 68 29 q 81 41 81 88 l 81 634 q 81 662 70 671 q 58 679 14 680 l 14 700 q 59 714 91 727 q 124 740 147 754 z"},"z":{"x_min":0,"x_max":467,"ha":467,"o":"m 59 469 q 89 468 125 468 q 162 468 237 468 q 315 468 355 468 q 396 468 431 469 l 144 38 l 237 38 q 332 38 364 59 q 396 79 411 133 l 429 133 q 428 119 424 73 q 421 27 419 -2 l 19 -2 l 309 430 l 227 430 q 145 430 111 409 q 77 389 69 337 l 54 337 q 56 381 58 447 q 59 462 59 469 z"},"B":{"x_min":0,"x_max":641,"ha":641,"o":"m 236 89 q 236 53 251 42 q 266 30 311 30 q 394 30 437 70 q 480 109 480 185 q 480 276 429 322 q 378 368 277 368 q 266 368 241 366 q 238 366 236 366 z m 236 400 l 261 400 q 360 400 402 434 q 443 468 443 548 q 443 611 403 649 q 363 687 295 687 q 254 687 245 680 q 236 673 236 650 z m 49 717 q 75 714 103 713 q 131 712 166 712 q 194 712 243 714 q 292 717 312 717 q 432 717 491 677 q 551 637 551 557 q 551 494 511 450 q 471 406 398 391 q 498 371 543 326 q 589 281 589 203 q 589 99 523 49 q 458 0 318 0 q 290 0 240 1 q 190 3 168 3 q 145 3 120 2 q 95 0 49 -3 l 49 19 q 102 21 116 31 q 130 42 130 98 l 130 103 l 130 617 q 130 673 116 684 q 102 695 49 696 z"},"K":{"x_min":0,"x_max":716,"ha":716,"o":"m 463 717 q 486 714 513 713 q 541 712 579 712 q 617 712 645 713 q 672 714 695 717 l 695 696 q 659 694 625 676 q 592 658 545 614 l 338 417 l 633 95 q 669 55 698 38 q 727 21 756 19 l 756 -3 q 728 0 691 1 q 654 3 610 3 q 563 3 527 1 q 490 0 462 -3 l 462 19 q 498 19 514 25 q 530 31 530 45 q 530 53 522 65 q 514 78 496 97 l 247 377 l 486 618 q 508 640 516 651 q 524 663 524 670 q 524 683 509 689 q 494 696 463 696 z m 48 717 q 75 714 107 713 q 139 712 183 712 q 227 712 259 713 q 291 714 317 717 l 317 696 q 264 695 250 684 q 235 672 235 612 l 235 103 q 235 43 249 32 q 264 21 317 19 l 317 -3 q 280 0 248 1 q 216 3 183 3 q 150 3 117 1 q 84 0 48 -3 l 48 19 q 102 21 116 32 q 130 43 130 103 l 130 612 q 130 672 115 684 q 101 695 48 696 z"},"R":{"x_min":0,"x_max":680,"ha":680,"o":"m 235 333 q 246 332 256 331 q 266 330 275 330 q 368 330 422 376 q 475 422 475 502 q 475 587 425 634 q 375 681 285 681 l 270 681 q 246 681 240 675 q 235 668 235 644 z m 48 717 q 78 714 115 713 q 151 712 202 712 l 281 712 q 354 712 395 707 q 436 703 468 692 q 522 674 554 629 q 585 585 585 526 q 585 453 540 400 q 495 348 415 328 l 597 97 l 598 96 q 658 19 708 19 l 708 -3 q 693 -2 675 -1 q 658 -1 623 -1 q 590 -1 573 -1 q 557 -2 543 -3 l 333 280 q 322 296 311 301 q 301 306 280 306 q 271 306 259 305 q 248 304 235 302 l 235 103 q 235 43 249 32 q 264 21 317 19 l 317 -3 q 280 0 248 1 q 216 3 183 3 q 150 3 117 1 q 84 0 48 -3 l 48 19 q 102 21 116 32 q 130 43 130 103 l 130 612 q 130 672 115 684 q 101 695 48 696 z"},"T":{"x_min":0,"x_max":670,"ha":670,"o":"m 47 717 q 77 714 143 713 q 208 712 414 712 l 476 712 q 529 712 566 713 q 604 714 634 717 q 631 680 630 636 q 628 592 627 537 l 605 537 q 602 618 572 647 q 542 676 454 676 l 388 676 l 388 98 q 388 42 402 31 q 416 21 469 19 l 469 -3 q 432 0 400 1 q 368 3 335 3 q 302 3 269 1 q 236 0 200 -3 l 200 19 q 253 21 268 32 q 282 43 282 103 l 282 676 l 234 676 q 150 676 106 642 q 62 608 55 537 l 32 537 q 38 580 42 625 q 45 669 47 717 z"},"P":{"x_min":0,"x_max":606,"ha":606,"o":"m 235 339 l 259 339 q 362 339 408 378 q 454 418 454 506 q 454 588 406 637 q 357 685 275 685 q 246 685 240 680 q 235 676 235 659 z m 57 717 q 89 714 128 713 q 166 712 245 712 l 264 712 q 349 712 390 706 q 431 701 462 688 q 511 667 536 625 q 561 583 561 521 q 561 415 493 362 q 425 310 287 310 q 273 310 260 311 q 247 311 235 312 l 235 103 q 235 43 249 32 q 264 21 316 19 l 316 -3 q 267 0 238 2 q 209 3 183 3 q 144 3 56 -2 l 50 -3 l 50 19 q 102 21 116 32 q 130 43 130 103 l 130 617 q 130 672 117 683 q 104 694 57 696 z"},"|":{"x_min":0,"x_max":500,"ha":500,"o":"m 214 764 l 287 764 l 287 -236 l 214 -236 z"},"t":{"x_min":0,"x_max":314,"ha":314,"o":"m 151 620 l 170 620 l 170 467 l 287 467 l 287 431 l 170 431 l 170 125 q 170 82 182 63 q 193 45 220 45 q 233 45 248 52 q 263 59 281 74 l 294 56 q 263 21 232 3 q 202 -14 170 -14 q 123 -14 104 13 q 86 41 86 136 l 86 431 l 24 431 l 24 454 q 73 472 106 514 q 139 557 151 620 z"},"M":{"x_min":0,"x_max":937,"ha":937,"o":"m 57 718 q 79 716 106 715 q 133 714 165 714 q 189 714 209 715 q 229 716 246 718 q 290 612 338 494 q 385 375 469 165 l 690 718 q 708 716 725 715 q 741 714 754 714 q 799 714 831 715 q 862 716 884 718 l 884 696 q 834 695 820 684 q 806 673 806 617 l 806 612 l 806 98 q 806 42 820 31 q 834 21 884 19 l 884 -3 q 850 0 819 1 q 787 3 756 3 q 725 3 694 1 q 664 0 629 -3 l 629 19 q 678 21 692 31 q 706 42 706 90 l 706 103 l 706 644 l 442 4 l 434 4 q 361 191 297 351 q 232 512 176 644 l 169 117 l 169 104 q 169 52 185 36 q 201 21 247 19 l 247 -3 q 228 0 202 1 q 176 3 142 3 q 116 3 91 1 q 65 0 37 -3 l 37 19 q 88 21 106 39 q 123 57 125 127 l 135 612 l 135 627 q 135 671 121 683 q 108 694 57 696 z"},"g":{"x_min":0,"x_max":522,"ha":522,"o":"m 167 0 q 139 -20 125 -41 q 111 -61 111 -83 q 111 -122 154 -149 q 196 -177 259 -177 q 327 -177 373 -148 q 419 -120 419 -82 q 419 -20 197 -2 q 178 -1 167 0 z m 379 416 q 397 386 406 358 q 415 330 415 303 q 415 229 367 182 q 318 135 242 135 q 228 135 212 137 q 197 140 181 144 q 160 126 148 111 q 136 96 136 89 q 136 73 220 65 q 232 64 238 64 q 250 63 271 61 q 375 52 396 43 q 431 28 447 7 q 463 -15 463 -49 q 463 -76 452 -101 q 441 -126 420 -150 q 389 -183 330 -205 q 271 -227 210 -227 q 126 -227 77 -197 q 29 -167 29 -115 q 29 -82 56 -51 q 83 -20 133 4 q 99 13 83 27 q 67 41 67 60 q 67 78 87 100 q 106 123 152 155 q 109 179 87 218 q 65 256 65 307 q 65 382 113 431 q 161 479 235 479 q 274 479 306 467 q 339 455 366 430 q 399 460 416 470 q 434 481 448 481 q 470 481 483 470 q 495 459 495 439 q 495 423 485 412 q 475 402 460 402 q 446 402 430 416 q 414 429 409 429 q 403 429 384 418 q 381 417 379 416 z m 344 271 q 344 337 306 390 q 269 443 224 443 q 188 443 163 415 q 139 388 139 345 q 139 325 144 305 q 148 285 157 266 q 176 223 201 203 q 227 182 259 182 q 295 182 320 208 q 344 233 344 271 z"},"j":{"x_min":0,"x_max":254,"ha":254,"o":"m 158 480 l 176 480 l 176 27 q 176 -108 146 -168 q 117 -228 52 -228 q 16 -228 -3 -209 q -21 -189 -21 -151 q -21 -136 -15 -131 q -8 -125 9 -125 q 27 -125 33 -129 q 39 -132 42 -145 q 43 -150 44 -158 q 49 -192 70 -192 q 87 -192 95 -178 q 103 -165 103 -135 q 103 -126 97 -64 q 92 -1 92 54 l 92 348 q 92 387 81 396 q 69 405 25 406 l 25 425 q 48 430 78 442 q 108 455 158 480 z m 133 720 q 159 720 172 705 q 186 690 186 663 q 186 633 170 616 q 154 598 128 598 q 103 598 88 614 q 73 630 73 658 q 73 685 90 702 q 107 720 133 720 z"},"i":{"x_min":0,"x_max":263,"ha":263,"o":"m 161 480 l 179 480 l 179 88 q 179 38 190 28 q 202 18 245 16 l 245 -2 q 215 0 188 1 q 161 2 137 2 q 113 2 85 1 q 58 0 28 -2 l 28 16 q 69 17 82 29 q 94 41 94 88 l 94 360 q 94 388 83 397 q 71 405 27 406 l 27 425 q 51 430 82 443 q 113 456 161 480 z m 135 720 q 161 720 174 705 q 188 690 188 663 q 188 633 172 616 q 156 598 130 598 q 105 598 90 614 q 75 630 75 658 q 75 685 92 702 q 109 720 135 720 z"},"y":{"x_min":0,"x_max":467,"ha":467,"o":"m 7 468 l 10 468 q 73 464 105 464 q 122 464 142 465 q 162 465 203 468 l 203 450 q 175 448 164 441 q 152 435 152 421 q 152 416 156 403 q 160 390 167 374 l 270 120 l 353 379 q 357 392 359 404 q 362 415 362 421 q 362 435 352 441 q 342 447 315 450 l 315 468 l 318 468 q 365 464 388 464 q 401 464 417 465 q 432 466 459 468 l 459 450 q 438 448 424 433 q 411 417 396 375 l 257 -20 q 210 -154 179 -190 q 148 -227 101 -227 q 64 -227 43 -206 q 23 -185 23 -146 q 23 -123 32 -114 q 41 -105 62 -105 q 79 -105 87 -110 q 96 -115 100 -127 q 102 -134 103 -148 q 105 -178 125 -178 q 148 -178 172 -137 q 195 -96 227 3 l 77 373 q 59 418 44 433 q 29 449 7 450 z"},"@":{"x_min":0,"x_max":986,"ha":986,"o":"m 579 162 q 549 111 512 86 q 475 61 429 61 q 366 61 329 106 q 291 151 291 226 q 291 279 315 332 q 339 384 384 427 q 417 458 455 475 q 493 492 531 492 q 575 492 602 469 q 629 445 639 399 l 664 484 l 741 484 l 657 185 q 657 184 655 179 q 648 152 648 137 q 648 112 659 99 q 671 85 692 85 q 708 85 731 95 q 754 104 775 120 q 833 164 863 232 q 892 299 892 387 q 892 452 866 507 q 841 562 790 605 q 746 643 686 663 q 625 683 555 683 q 467 683 391 653 q 315 623 257 565 q 195 504 164 425 q 133 345 133 250 q 133 161 161 97 q 188 33 248 -17 q 301 -62 372 -86 q 443 -110 522 -110 q 605 -110 682 -85 q 758 -60 828 -9 l 844 -29 q 772 -83 692 -110 q 611 -137 523 -137 q 431 -137 354 -115 q 278 -93 220 -49 q 146 6 108 86 q 69 166 69 262 q 69 361 111 448 q 153 535 234 601 q 299 655 378 683 q 456 710 545 710 q 714 710 816 618 q 918 526 918 374 q 918 296 889 229 q 861 161 808 113 q 779 87 747 74 q 714 60 681 60 q 634 60 608 86 q 583 112 579 162 z m 539 469 q 513 469 491 454 q 469 439 447 406 q 412 354 392 292 q 371 230 371 180 q 371 138 390 113 q 410 87 440 87 q 472 87 500 108 q 528 129 554 173 q 581 218 597 272 q 614 327 614 369 q 614 414 593 442 q 573 469 539 469 z"},".":{"x_min":0,"x_max":277,"ha":277,"o":"m 142 111 q 167 111 181 95 q 196 80 196 53 q 196 22 180 5 q 165 -12 136 -12 q 112 -12 97 4 q 83 21 83 48 q 83 75 100 93 q 118 111 142 111 z"},"p":{"x_min":0,"x_max":541,"ha":541,"o":"m 174 103 q 199 68 229 50 q 258 32 292 32 q 353 32 391 85 q 429 138 429 224 q 429 310 389 363 q 349 416 284 416 q 253 416 224 399 q 195 381 174 350 z m 145 480 l 164 480 l 164 380 q 206 433 245 457 q 285 480 332 480 q 408 480 456 421 q 504 361 504 266 q 504 150 445 75 q 386 0 298 0 q 260 0 229 15 q 199 29 175 59 l 175 -131 q 175 -182 187 -192 q 200 -202 250 -203 l 250 -222 q 237 -222 214 -221 q 153 -218 133 -218 q 103 -218 30 -221 q 18 -222 12 -222 l 12 -203 q 64 -203 78 -192 q 91 -181 91 -131 l 91 355 q 91 389 80 399 q 70 410 40 410 q 37 410 31 410 q 24 409 21 409 l 21 429 q 50 438 81 451 q 111 463 145 480 z"},"X":{"x_min":0,"x_max":670,"ha":670,"o":"m -22 716 q 5 713 38 712 q 71 711 117 711 q 162 711 195 712 q 228 713 255 716 l 255 695 q 223 694 211 688 q 198 682 198 667 q 198 661 203 650 q 207 639 215 628 l 351 431 l 490 630 q 500 645 504 654 q 509 664 509 669 q 509 682 493 688 q 477 695 444 695 l 444 716 q 480 713 506 712 q 532 711 552 711 q 577 711 604 712 q 630 713 660 716 l 660 695 l 651 695 q 618 695 594 680 q 570 665 536 619 l 375 398 l 605 71 q 626 40 646 30 q 666 20 699 19 l 699 -3 q 669 0 635 1 q 600 2 561 2 q 522 2 488 1 q 454 0 425 -3 l 425 19 q 457 20 470 26 q 484 32 484 46 q 484 55 480 64 q 476 74 468 85 l 309 319 l 140 84 q 129 69 126 61 q 122 53 122 46 q 122 31 134 26 q 146 20 187 19 l 187 -3 q 143 0 119 1 q 95 2 78 2 q 54 2 27 1 q 0 0 -30 -3 l -30 19 l -21 19 q 12 19 35 33 q 59 48 94 94 l 285 351 l 78 642 q 65 660 56 670 q 47 680 39 684 q 30 689 15 692 q 0 694 -22 695 z"},"*":{"x_min":0,"x_max":405,"ha":405,"o":"m 195 519 l 200 519 q 206 497 216 461 q 231 409 231 395 q 231 376 222 366 q 214 356 197 356 q 181 356 172 366 q 164 375 164 395 q 164 410 180 464 q 189 498 195 519 z m 224 535 q 234 532 253 527 q 369 498 369 468 q 369 455 360 444 q 350 434 338 434 q 314 434 251 499 q 232 519 221 530 z m 180 535 l 183 530 q 172 519 152 499 q 89 434 66 434 q 54 434 44 444 q 35 455 35 468 q 35 499 161 530 q 173 533 180 535 z m 224 553 l 221 558 q 232 569 251 589 q 314 654 338 654 q 350 654 360 644 q 369 633 369 620 q 369 590 253 561 q 234 556 224 553 z m 184 558 l 181 553 q 171 556 151 561 q 36 590 36 619 q 36 633 45 643 q 54 654 66 654 q 90 654 156 586 q 174 568 184 558 z m 200 565 l 195 565 q 189 586 180 620 q 164 674 164 689 q 164 708 172 718 q 181 728 197 728 q 214 728 222 718 q 231 708 231 689 q 231 675 216 623 q 206 587 200 565 z"},"Y":{"x_min":0,"x_max":629,"ha":629,"o":"m -27 717 q 0 714 32 713 q 64 712 109 712 q 153 712 185 713 q 217 714 244 717 l 244 696 q 208 692 195 685 q 183 677 183 663 q 183 654 198 629 l 200 625 l 352 376 l 509 616 q 511 619 514 624 q 533 653 533 663 q 533 679 516 687 q 499 694 462 696 l 462 717 q 494 714 518 713 q 542 712 562 712 q 593 712 617 713 q 642 714 663 717 l 663 696 q 615 690 553 601 l 547 592 l 380 348 l 380 98 q 380 42 395 31 q 410 20 466 19 l 466 -3 q 427 0 393 1 q 360 3 326 3 q 291 3 257 1 q 222 0 185 -3 l 185 19 q 249 22 263 32 q 278 43 278 99 l 278 103 l 278 325 l 105 589 q 68 645 38 669 q 8 693 -27 696 z"},"c":{"x_min":0,"x_max":467,"ha":467,"o":"m 416 167 l 435 160 q 415 80 363 33 q 311 -13 241 -13 q 149 -13 93 53 q 36 120 36 228 q 36 342 99 411 q 161 480 265 480 q 329 480 366 451 q 404 422 404 374 q 404 356 394 347 q 384 338 366 338 q 343 338 334 345 q 324 353 321 372 q 314 421 298 437 q 282 452 250 452 q 191 452 151 400 q 111 348 111 267 q 111 176 156 120 q 201 64 273 64 q 316 64 354 91 q 391 118 416 167 z"},"!":{"x_min":0,"x_max":277,"ha":277,"o":"m 140 111 q 166 111 179 96 q 193 81 193 53 q 193 23 177 5 q 161 -13 135 -13 q 111 -13 96 4 q 81 21 81 48 q 81 74 98 93 q 116 111 140 111 z m 156 206 l 129 206 q 124 306 106 456 q 89 606 89 656 q 89 693 102 710 q 115 728 142 728 q 169 728 182 710 q 195 693 195 656 q 195 605 178 455 q 161 305 156 206 z"},"/":{"x_min":0,"x_max":444,"ha":444,"o":"m 339 728 l 382 728 l 66 -106 l 22 -106 z"},"[":{"x_min":0,"x_max":405,"ha":405,"o":"m 131 715 l 354 715 l 354 683 l 207 683 l 207 -118 l 354 -118 l 354 -149 l 131 -149 z"},"6":{"x_min":0,"x_max":554,"ha":554,"o":"m 145 318 q 146 187 188 115 q 230 44 305 44 q 358 44 392 86 q 426 128 426 196 q 426 284 385 341 q 345 397 283 397 q 248 397 213 377 q 179 357 145 318 z m 453 683 l 446 658 q 428 663 410 665 q 392 667 374 667 q 274 667 213 581 q 151 494 143 342 q 187 409 229 438 q 271 467 322 467 q 401 467 452 406 q 503 344 503 246 q 503 133 437 60 q 371 -14 271 -14 q 168 -14 111 64 q 53 142 53 280 q 53 467 140 582 q 227 697 364 697 q 385 697 406 693 q 428 690 453 683 z"},"r":{"x_min":0,"x_max":387,"ha":387,"o":"m 147 480 l 167 480 l 167 355 q 225 429 251 448 q 277 467 307 467 q 333 467 344 450 q 356 433 356 396 q 356 370 348 361 q 341 351 322 351 q 299 351 292 355 q 284 359 280 376 q 275 394 271 399 q 268 405 262 405 q 253 405 230 381 q 206 358 176 318 l 176 88 q 176 38 188 28 q 200 18 257 16 l 257 -2 q 221 0 192 1 q 163 2 144 2 q 111 2 82 1 q 53 0 26 -2 l 26 16 q 67 17 80 29 q 92 41 92 88 l 92 353 q 92 386 82 397 q 71 408 42 408 q 39 408 33 408 q 27 407 23 407 l 23 428 q 65 441 132 473 q 142 478 147 480 z"},"2":{"x_min":0,"x_max":554,"ha":554,"o":"m 144 89 l 398 89 q 435 89 455 93 q 475 97 492 106 l 502 106 q 488 77 476 51 q 464 24 453 -1 q 415 0 371 0 q 326 0 241 0 q 158 0 118 0 q 78 0 45 -1 l 45 29 q 100 83 157 143 q 214 203 275 269 q 338 337 363 386 q 388 436 388 486 q 388 546 348 586 q 308 625 246 625 q 188 625 146 588 q 105 551 94 490 l 72 490 q 79 583 139 641 q 200 699 290 699 q 378 699 433 644 q 489 588 489 500 q 489 438 453 380 q 417 322 328 246 q 307 228 242 175 q 177 121 144 89 z"},"{":{"x_min":0,"x_max":500,"ha":500,"o":"m 414 740 l 414 714 q 348 713 323 688 q 299 662 299 585 l 299 516 q 299 405 270 365 q 241 326 164 310 q 242 294 270 255 q 299 215 299 104 l 299 35 q 299 -42 323 -67 q 347 -92 414 -93 l 414 -119 l 409 -119 q 302 -119 262 -83 q 222 -47 222 50 l 222 151 q 222 229 193 259 q 165 289 87 295 l 87 326 q 166 333 194 362 q 222 392 222 470 l 222 571 q 222 668 262 704 q 302 740 409 740 z"},"9":{"x_min":0,"x_max":554,"ha":554,"o":"m 97 1 l 104 25 q 121 21 138 18 q 155 16 171 16 q 275 16 337 101 q 398 185 407 341 q 364 275 322 246 q 279 217 228 217 q 149 217 98 278 q 47 339 47 434 q 47 550 112 624 q 178 698 279 698 q 381 698 439 620 q 497 542 497 404 q 497 218 410 102 q 323 -13 186 -13 q 166 -13 144 -10 q 123 -6 97 1 z m 403 366 q 401 498 359 569 q 318 640 244 640 q 190 640 157 598 q 123 557 123 489 q 123 401 165 344 q 207 286 269 286 q 301 286 335 306 q 369 327 403 366 z"}," ":{"x_min":0,"x_max":277,"ha":277,"o":""},"I":{"x_min":0,"x_max":366,"ha":366,"o":"m 48 717 q 75 714 107 713 q 139 712 183 712 q 227 712 259 713 q 291 714 317 717 l 317 696 q 264 695 250 684 q 235 672 235 612 l 235 103 q 235 43 249 32 q 264 21 317 19 l 317 -3 q 280 0 248 1 q 216 3 183 3 q 150 3 117 1 q 84 0 48 -3 l 48 19 q 102 21 116 32 q 130 43 130 103 l 130 612 q 130 672 115 684 q 101 695 48 696 z"},"H":{"x_min":0,"x_max":831,"ha":831,"o":"m 49 717 q 75 714 107 713 q 139 712 183 712 q 227 712 259 713 q 292 714 318 717 l 318 696 q 265 695 250 684 q 236 672 236 612 l 236 388 l 595 388 l 595 612 q 595 672 581 684 q 566 695 513 696 l 513 717 q 539 714 571 713 q 603 712 647 712 q 691 712 723 713 q 755 714 782 717 l 782 696 q 729 695 715 684 q 700 672 700 612 l 700 103 q 700 43 714 32 q 729 21 782 19 l 782 -3 q 746 0 713 1 q 680 3 647 3 q 614 3 581 1 q 548 0 513 -3 l 513 19 q 566 21 581 32 q 595 43 595 103 l 595 348 l 236 348 l 236 103 q 236 43 250 32 q 265 21 318 19 l 318 -3 q 282 0 249 1 q 216 3 183 3 q 150 3 117 1 q 84 0 49 -3 l 49 19 q 103 21 117 32 q 131 43 131 103 l 131 612 q 131 672 116 684 q 102 695 49 696 z"},"4":{"x_min":0,"x_max":554,"ha":554,"o":"m 318 578 l 96 276 l 318 276 z m 362 699 l 403 699 l 403 276 l 514 276 l 514 209 l 403 209 l 403 -5 l 318 -5 l 318 209 l 46 209 l 46 276 q 77 318 186 462 q 294 606 362 699 z"},"~":{"x_min":0,"x_max":833,"ha":833,"o":"m 747 376 l 747 300 q 696 265 650 248 q 604 231 557 231 q 512 231 432 259 q 421 263 416 265 l 408 268 q 322 297 275 297 q 234 297 189 279 q 145 261 87 220 l 87 296 q 139 331 186 349 q 232 366 276 366 q 306 366 338 360 q 370 353 418 336 q 426 333 441 328 q 519 300 558 300 q 601 300 646 318 q 690 336 747 376 z"},"D":{"x_min":0,"x_max":803,"ha":803,"o":"m 236 115 q 236 63 251 51 q 267 39 324 39 q 480 39 559 118 q 637 197 637 355 q 637 513 552 598 q 466 683 307 683 l 270 683 q 247 683 241 678 q 236 673 236 649 z m 49 717 q 72 716 100 715 q 127 715 183 715 l 363 717 q 547 717 648 626 q 750 536 750 372 q 750 198 643 99 q 535 0 346 0 q 330 0 276 1 q 221 3 183 3 q 144 3 110 1 q 77 0 49 -3 l 49 19 q 103 21 117 32 q 131 43 131 103 l 131 612 q 131 672 116 684 q 102 695 49 696 z"},"^":{"x_min":0,"x_max":1000,"ha":1000,"o":"m 452 714 l 547 714 l 797 438 l 749 438 l 499 643 l 248 438 l 201 438 z"},"0":{"x_min":0,"x_max":554,"ha":554,"o":"m 271 669 q 205 669 171 595 q 137 521 137 377 q 137 222 180 133 q 223 44 297 44 q 361 44 393 112 q 426 179 426 313 q 426 476 383 572 q 341 669 271 669 z m 284 699 q 390 699 451 605 q 512 511 512 346 q 512 178 447 82 q 382 -13 269 -13 q 165 -13 104 80 q 42 172 42 332 q 42 498 109 599 q 176 699 284 699 z"},"F":{"x_min":0,"x_max":596,"ha":596,"o":"m 48 717 q 82 714 129 713 q 176 712 286 712 q 389 712 450 713 q 512 714 552 717 l 561 559 l 540 559 q 530 621 491 647 q 452 674 369 674 l 267 674 q 245 674 240 669 q 235 665 235 650 l 235 391 l 366 391 q 417 391 438 412 q 458 432 464 488 l 485 488 q 485 449 485 372 q 486 295 486 257 l 465 257 q 459 312 438 333 q 418 354 367 354 l 235 354 l 235 103 q 235 43 249 32 q 264 21 317 19 l 317 -3 q 280 0 248 1 q 216 3 183 3 q 150 3 117 1 q 84 0 48 -3 l 48 19 q 102 21 116 32 q 130 43 130 103 l 130 612 q 130 672 115 684 q 101 695 48 696 z"},"`":{"x_min":0,"x_max":500,"ha":500,"o":"m 188 708 l 348 542 l 311 542 l 128 656 q 110 667 102 678 q 93 689 93 701 q 93 718 104 730 q 115 741 132 741 q 145 741 158 734 q 170 727 188 708 z"},"k":{"x_min":0,"x_max":529,"ha":529,"o":"m 297 469 q 319 467 341 467 q 364 466 387 466 q 410 466 433 467 q 456 467 478 469 l 478 450 q 429 444 343 363 q 333 354 328 349 l 260 286 l 425 96 q 458 58 484 38 q 511 18 530 16 l 530 -2 q 502 0 478 0 q 454 1 433 1 q 415 1 391 0 q 368 0 337 -2 l 337 16 q 350 17 359 22 q 367 28 367 36 q 367 42 362 51 q 356 60 341 77 l 184 256 l 281 352 q 313 383 323 397 q 333 411 333 422 q 333 433 323 440 q 314 448 297 450 z m 158 754 l 176 754 l 176 88 q 176 38 187 28 q 199 18 242 16 l 242 -2 q 212 0 185 1 q 158 2 134 2 q 110 2 83 1 q 56 0 26 -2 l 26 16 q 67 17 80 29 q 92 41 92 88 l 92 634 q 92 662 81 671 q 69 679 26 680 l 26 700 q 58 709 91 722 q 124 736 158 754 z"},"u":{"x_min":0,"x_max":556,"ha":556,"o":"m 155 480 l 169 480 l 169 173 q 169 110 193 78 q 217 47 265 47 q 295 47 323 62 q 351 76 375 104 l 375 336 q 375 385 363 395 q 350 405 311 405 l 311 425 q 340 432 374 446 q 407 459 446 480 l 460 480 l 460 108 q 460 77 471 66 q 482 56 514 56 l 525 56 l 525 36 q 499 29 470 19 q 442 9 412 -4 l 382 -4 l 382 72 q 347 30 307 8 q 268 -13 224 -13 q 153 -13 118 24 q 84 61 84 137 l 84 336 q 84 384 71 395 q 59 405 19 405 l 19 425 q 48 432 81 446 q 115 459 155 480 z"},"]":{"x_min":0,"x_max":405,"ha":405,"o":"m 51 715 l 275 715 l 275 -149 l 51 -149 l 51 -118 l 198 -118 l 198 683 l 51 683 z"},"U":{"x_min":0,"x_max":786,"ha":786,"o":"m 48 717 q 75 714 107 713 q 139 712 183 712 q 227 712 259 713 q 291 714 317 717 l 317 696 q 264 695 250 684 q 235 672 235 612 l 235 311 q 235 222 241 180 q 247 138 261 116 q 283 83 326 65 q 369 47 426 47 q 528 47 570 101 q 612 155 612 291 l 612 619 q 612 668 597 681 q 583 694 537 696 l 537 717 q 556 714 579 713 q 602 712 634 712 q 668 712 692 713 q 715 714 733 717 l 733 696 q 686 694 670 678 q 655 663 655 587 l 655 304 q 655 218 647 169 q 639 120 621 92 q 586 39 526 13 q 466 -13 377 -13 q 301 -13 251 5 q 200 23 173 60 q 149 91 140 135 q 130 178 130 287 l 130 612 q 130 672 115 684 q 101 695 48 696 z"},"o":{"x_min":0,"x_max":538,"ha":538,"o":"m 261 451 q 198 451 157 400 q 116 348 116 268 q 116 170 168 102 q 220 34 292 34 q 354 34 388 81 q 423 128 423 214 q 423 317 376 384 q 330 451 261 451 z m 277 480 q 375 480 438 411 q 501 343 501 236 q 501 124 435 55 q 369 -13 261 -13 q 161 -13 99 52 q 37 117 37 222 q 37 336 104 408 q 171 480 277 480 z"},"N":{"x_min":0,"x_max":795,"ha":795,"o":"m 41 717 q 62 715 83 714 q 104 713 127 713 q 150 713 170 714 q 189 715 206 717 q 322 574 425 443 q 528 312 622 188 l 622 593 q 622 665 605 680 q 589 695 540 696 l 540 717 q 562 714 589 713 q 616 712 653 712 q 685 712 708 713 q 731 714 750 717 l 750 696 q 699 694 682 677 q 665 661 665 587 l 665 -11 l 656 -11 q 520 163 404 310 q 288 457 174 599 l 174 107 q 174 50 189 36 q 205 22 253 19 l 253 -3 q 226 0 199 1 q 173 3 147 3 q 121 3 95 1 q 70 0 42 -3 l 42 19 q 97 21 114 37 q 131 54 131 127 l 131 641 l 89 683 q 83 689 73 693 q 62 696 48 696 l 41 696 z"},"+":{"x_min":0,"x_max":833,"ha":833,"o":"m 382 596 l 451 596 l 451 332 l 709 332 l 709 264 l 451 264 l 451 0 l 382 0 l 382 264 l 124 264 l 124 332 l 382 332 z"},"G":{"x_min":0,"x_max":794,"ha":794,"o":"m 661 699 l 671 497 l 651 497 q 627 589 567 641 q 506 693 423 693 q 364 693 313 666 q 261 639 226 589 q 194 543 177 490 q 161 436 161 376 q 161 327 172 282 q 182 237 202 200 q 244 121 307 81 q 370 41 451 41 q 492 41 528 54 q 563 67 591 92 l 591 278 q 591 310 577 321 q 562 332 511 334 l 511 355 q 540 353 573 351 q 606 350 642 350 q 685 350 714 351 q 743 353 764 355 l 764 334 q 719 331 708 321 q 696 312 696 278 l 696 101 q 631 44 558 15 q 484 -13 402 -13 q 243 -13 147 85 q 52 183 52 346 q 52 417 72 479 q 93 542 134 594 q 185 658 259 693 q 333 728 419 728 q 469 728 536 712 q 602 696 621 696 q 629 696 639 697 q 649 697 661 699 z"},"q":{"x_min":0,"x_max":541,"ha":541,"o":"m 379 334 q 379 384 348 417 q 317 449 269 449 q 204 449 161 395 q 117 340 117 256 q 117 171 161 116 q 204 61 268 61 q 317 61 348 93 q 379 125 379 176 z m 392 442 l 464 477 l 464 -131 q 464 -182 476 -192 q 489 -202 540 -203 l 540 -222 q 528 -222 506 -221 q 442 -218 422 -218 q 392 -218 319 -221 q 307 -222 301 -222 l 301 -203 q 354 -203 367 -192 q 380 -181 380 -131 l 380 80 q 342 37 304 18 q 266 -1 217 -1 q 137 -1 86 57 q 36 116 36 210 q 36 267 52 315 q 68 362 100 402 q 130 439 173 459 q 216 480 264 480 q 296 480 327 471 q 358 462 392 442 z"},"d":{"x_min":0,"x_max":551,"ha":551,"o":"m 371 347 q 371 383 338 415 q 304 446 261 446 q 200 446 159 391 q 117 336 117 253 q 117 167 161 107 q 206 47 268 47 q 310 47 341 75 q 371 103 371 140 z m 442 754 l 456 754 l 456 128 q 456 82 468 67 q 479 52 510 52 q 512 52 516 52 q 521 53 523 53 l 523 31 q 491 24 463 15 q 434 6 408 -6 l 379 -6 l 379 69 q 349 26 314 7 q 279 -13 235 -13 q 148 -13 92 54 q 36 121 36 227 q 36 282 52 327 q 68 372 100 408 q 130 442 169 460 q 208 479 249 479 q 287 479 317 465 q 347 450 371 420 l 371 610 q 371 657 359 668 q 348 679 312 679 l 307 679 l 307 700 q 337 708 369 721 q 402 734 442 754 z"},"1":{"x_min":0,"x_max":554,"ha":554,"o":"m 306 704 l 327 704 l 327 629 l 327 547 l 327 88 q 327 38 340 27 q 354 17 406 16 l 406 -2 q 366 0 333 1 q 300 2 283 2 q 269 2 225 0 q 180 -1 157 -2 l 157 16 l 165 16 q 212 16 226 28 q 240 40 240 88 l 240 536 q 240 567 236 576 q 231 586 219 586 q 213 586 203 582 q 193 579 182 572 l 150 553 l 137 572 q 188 608 230 641 q 271 673 306 704 z"},"5":{"x_min":0,"x_max":554,"ha":554,"o":"m 444 695 l 441 684 q 428 628 422 603 l 156 603 l 130 437 q 166 456 201 466 q 235 475 270 475 q 362 475 420 412 q 478 348 478 247 q 478 200 460 154 q 442 107 409 70 q 374 30 326 8 q 279 -14 226 -14 q 175 -14 131 5 q 87 23 56 59 l 72 75 q 104 53 135 42 q 166 31 195 31 q 278 31 329 87 q 381 143 381 233 q 381 310 334 359 q 287 408 214 408 q 187 408 156 400 q 126 392 93 375 l 141 687 q 149 687 158 686 q 167 686 182 686 l 213 686 l 369 686 q 389 686 407 688 q 426 690 444 695 z"}}}
